<svg id="Layer_1" data-name="Layer 1" xmlns="http://www.w3.org/2000/svg" viewBox="0 0 58.7 51.76"><defs><style>.cls-1{fill:#26c6af;}.cls-2{fill:#1aebde;}.cls-3{fill:#289085;}</style></defs><g id="icon_set" data-name="icon set"><path class="cls-1" d="M44,39.66,32.62,20l-3.17-5.78L22.27,26.74,26.34,34l2.11-1.59L50.19,51.31a.36.36,0,0,0,.56-.42Z" transform="translate(-2.67 -7.24)"/><path class="cls-2" d="M61.32,43.88,41,7.24l-7,12.22,4,7,2.19-1.38L60.77,44.3A.35.35,0,0,0,61.32,43.88Z" transform="translate(-2.67 -7.24)"/><path class="cls-3" d="M17.71,21.51l-15,26.36a.35.35,0,0,0,.49.48L16.57,39.9l21.52,19a.35.35,0,0,0,.56-.42Z" transform="translate(-2.67 -7.24)"/></g></svg>