<svg id="Layer_1" data-name="Layer 1" xmlns="http://www.w3.org/2000/svg" viewBox="0 0 372.67 94.48"><defs><style>.cls-1{fill:#096d6b;}.cls-2{fill:#26c6af;}.cls-3{fill:#1aebde;}.cls-4{fill:#289085;}</style></defs><g id="solutions"><path class="cls-1" d="M173.14,88.15,175,86.34a7.79,7.79,0,0,0,4.63,1.7c2,0,3.1-.76,3.1-1.92s-1.14-1.63-2.75-2.2L177.52,83c-1.74-.62-3.59-1.79-3.59-4,0-2.38,2.51-4.21,6-4.21a8.63,8.63,0,0,1,5.46,1.9l-1.6,1.69a6.43,6.43,0,0,0-3.86-1.28c-1.69,0-2.8.67-2.8,1.77s1.36,1.6,2.82,2.1l2.43.85c2.09.75,3.59,1.87,3.59,4,0,2.43-2.4,4.44-6.4,4.44A10.18,10.18,0,0,1,173.14,88.15Z" transform="translate(-3.67 -2.76)"/><path class="cls-1" d="M188.27,82.52c0-4.83,3.21-7.69,7.83-7.69S204,77.69,204,82.52s-3.2,7.83-7.86,7.83S188.27,87.37,188.27,82.52Zm12.43,0c0-3.34-1.79-5.38-4.6-5.38s-4.59,2-4.59,5.38S193.3,88,196.1,88,200.7,85.89,200.7,82.52Z" transform="translate(-3.67 -2.76)"/><path class="cls-1" d="M207.53,75.11h3.16V87.83h7.39v2.24H207.53Z" transform="translate(-3.67 -2.76)"/><path class="cls-1" d="M220.21,83.51v-8.4h3.15v8.6C223.36,87,224.8,88,227,88s3.7-1.08,3.7-4.33v-8.6h3v8.4c0,4.92-2.58,6.84-6.72,6.84S220.21,88.43,220.21,83.51Z" transform="translate(-3.67 -2.76)"/><path class="cls-1" d="M241.7,77.35h-5.14V75.11H250v2.24h-5.14V90.07H241.7Z" transform="translate(-3.67 -2.76)"/><path class="cls-1" d="M253,75.11h3.16v15H253Z" transform="translate(-3.67 -2.76)"/><path class="cls-1" d="M259.71,82.52c0-4.83,3.21-7.69,7.83-7.69s7.86,2.86,7.86,7.69-3.21,7.83-7.86,7.83S259.71,87.37,259.71,82.52Zm12.43,0c0-3.34-1.8-5.38-4.6-5.38s-4.6,2-4.6,5.38,1.8,5.52,4.6,5.52S272.14,85.89,272.14,82.52Z" transform="translate(-3.67 -2.76)"/><path class="cls-1" d="M279,75.11h3.24l5.54,8.42,1.83,3.18h.11c-.14-1.53-.41-3.43-.41-5.1v-6.5h3v15h-3.24l-5.55-8.42-1.82-3.18h-.11c.14,1.58.41,3.39.41,5.06v6.54h-3Z" transform="translate(-3.67 -2.76)"/><path class="cls-1" d="M295.59,88.15l1.85-1.81a7.76,7.76,0,0,0,4.62,1.7c2,0,3.1-.76,3.1-1.92s-1.14-1.63-2.74-2.2L300,83c-1.74-.62-3.59-1.79-3.59-4,0-2.38,2.5-4.21,6-4.21a8.65,8.65,0,0,1,5.47,1.9l-1.6,1.69a6.46,6.46,0,0,0-3.87-1.28c-1.68,0-2.8.67-2.8,1.77s1.36,1.6,2.83,2.1l2.42.85c2.09.75,3.59,1.87,3.59,4,0,2.43-2.39,4.44-6.39,4.44A10.18,10.18,0,0,1,295.59,88.15Z" transform="translate(-3.67 -2.76)"/></g><g id="apexrow"><path class="cls-1" d="M146.83,13.05h-2.54l-9.94,25.68h-7.22l-3.67,5.14,9-.15-4.09,10.56h5.83l3.94-10.66,10.17-.18h7.1l4.07,10.84h5.77L150.42,15.82C149.71,14,148.52,13.05,146.83,13.05Zm-7,25.68,7-18.61h.06l6.89,18.61Z" transform="translate(-3.67 -2.76)"/><path class="cls-1" d="M186.78,24.42h-4.07a7.83,7.83,0,0,0-4,1.15,9.5,9.5,0,0,0-3.21,3V24.89h-5.24V66h5.48V51.34a8.57,8.57,0,0,0,3.09,2.47,8.33,8.33,0,0,0,3.68.94h4.13a11.05,11.05,0,0,0,5.83-1.53,10.21,10.21,0,0,0,3.92-4.3,14,14,0,0,0,1.39-6.36v-7a11,11,0,0,0-3-8.07A10.73,10.73,0,0,0,186.78,24.42Zm5.48,18a8.5,8.5,0,0,1-1.65,5.48,5.36,5.36,0,0,1-4.42,2.06h-3.77A6.1,6.1,0,0,1,178,48.07a7.86,7.86,0,0,1-2.21-4.8V35.43A9.27,9.27,0,0,1,178.38,31a5.85,5.85,0,0,1,4-1.71h3.94A5.51,5.51,0,0,1,190.64,31a6.74,6.74,0,0,1,1.62,4.69Z" transform="translate(-3.67 -2.76)"/><path class="cls-1" d="M220,24.42h-4.83a11.33,11.33,0,0,0-8.34,3.12,11.17,11.17,0,0,0-3.15,8.31V44a10.25,10.25,0,0,0,3.15,7.81,11.66,11.66,0,0,0,8.34,3h4.48A12.15,12.15,0,0,0,227.91,52,9,9,0,0,0,231,44.92h-5.36A4.56,4.56,0,0,1,224,48.6,6.5,6.5,0,0,1,219.71,50h-4.53a5.67,5.67,0,0,1-6-6V41.15h22V35.61A10.53,10.53,0,0,0,220,24.42Zm5.66,12.37h-16.5V35.9A7.1,7.1,0,0,1,210.82,31a5.54,5.54,0,0,1,4.36-1.86H220a5.19,5.19,0,0,1,4.09,1.77,6.82,6.82,0,0,1,1.57,4.71Z" transform="translate(-3.67 -2.76)"/><polygon class="cls-1" points="257.88 22.13 251.64 22.13 244.04 32.44 236.44 22.13 230.19 22.13 240.85 36.56 229.78 51.52 235.96 51.52 244.04 40.63 252.11 51.52 258.3 51.52 247.22 36.56 257.88 22.13"/><path class="cls-1" d="M291.07,35.9v0a10.83,10.83,0,0,0,5.22-3.42A8.38,8.38,0,0,0,298.2,27V22.77a9.09,9.09,0,0,0-2.92-7,10.88,10.88,0,0,0-7.69-2.68H266.91V54.28h5.6V37.73h11.31a6,6,0,0,1,4.1,1.59,9.11,9.11,0,0,1,2.62,4.36l3.18,10.6h5.78l-3.24-10.84Q294.55,38,291.07,35.9Zm-5-3.12H272.51V18h15a5.29,5.29,0,0,1,3.71,1.29,4.44,4.44,0,0,1,1.41,3.42V27a5.33,5.33,0,0,1-1.79,4.18A6.91,6.91,0,0,1,286.06,32.78Z" transform="translate(-3.67 -2.76)"/><path class="cls-1" d="M320.89,24.42h-4.95a11.52,11.52,0,0,0-8.43,3.12,11,11,0,0,0-3.18,8.25v7.65a11,11,0,0,0,3.15,8.19,11.33,11.33,0,0,0,8.34,3.12h5a11.61,11.61,0,0,0,8.45-3.12,10.91,10.91,0,0,0,3.21-8.19V35.79a11,11,0,0,0-3.18-8.25A11.51,11.51,0,0,0,320.89,24.42ZM327,43.21a6.87,6.87,0,0,1-1.71,4.89,6,6,0,0,1-4.54,1.82h-4.89a5.68,5.68,0,0,1-4.42-1.82,7,7,0,0,1-1.65-4.89V36a7,7,0,0,1,1.68-4.89,5.77,5.77,0,0,1,4.45-1.82h4.95a5.79,5.79,0,0,1,4.45,1.82A7,7,0,0,1,327,36Z" transform="translate(-3.67 -2.76)"/><path class="cls-1" d="M370.56,24.89l-4.83,22.68-6.6-19.85a3.18,3.18,0,0,0-1-1.56,2.71,2.71,0,0,0-1.71-.5h-2.07l-7.48,21.85L342,24.89h-5.77l6.24,25.56A5.68,5.68,0,0,0,344,53.37a3.72,3.72,0,0,0,2.6.91h2.53l7.31-21,7.13,21h2.53a3.69,3.69,0,0,0,2.59-.91,5.61,5.61,0,0,0,1.48-2.92l6.18-25.56Z" transform="translate(-3.67 -2.76)"/></g><g id="icon_set" data-name="icon set"><path class="cls-2" d="M79.18,62,58.34,26.13,52.55,15.57,39.44,38.36,46.87,51.6l3.86-2.92L90.41,83.2a.64.64,0,0,0,1-.76Z" transform="translate(-3.67 -2.76)"/><path class="cls-3" d="M110.73,69.64,73.7,2.76,61,25.06,68.27,37.9l4-2.52,37.46,35A.64.64,0,0,0,110.73,69.64Z" transform="translate(-3.67 -2.76)"/><path class="cls-4" d="M31.13,28.81,3.76,76.93a.64.64,0,0,0,.9.87L29.05,62.39,68.33,97.05a.64.64,0,0,0,1-.76Z" transform="translate(-3.67 -2.76)"/></g></svg>